<?xml version="1.0" encoding="utf-8"?>
<!-- Svg Vector Icons : http://www.sfont.cn -->
<!DOCTYPE svg PUBLIC "-//W3C//DTD SVG 1.1//EN" "http://www.w3.org/Graphics/SVG/1.1/DTD/svg11.dtd">
<svg version="1.1" xmlns="http://www.w3.org/2000/svg" xmlns:xlink="http://www.w3.org/1999/xlink" x="0px" y="0px" viewBox="0 0 1000 1000" enable-background="new 0 0 1000 1000" xml:space="preserve">
<metadata> Svg Vector Icons : http://www.sfont.cn </metadata>
<g><path d="M875.1,878.5h-757c-33.8,0-67.6-27-67.6-54.1L10,398.6c0-27,27-54.1,67.6-54.1h844.8c33.8,0,67.6,27,67.6,54.1l-40.6,425.8C942.7,851.4,915.7,878.5,875.1,878.5z"/><path d="M179,270.2h628.6v27H179V270.2z"/><path d="M118.1,324.3V189.1c0-20.3,6.8-33.8,27-33.8h175.7L429,216.1h432.6c0,0,20.3,6.8,20.3,27v81.1h33.8V222.9c0-20.3-20.3-40.6-40.6-40.6H429l-101.4-60.8H124.9c-20.3,0-40.6,20.3-40.6,40.6v162.2H118.1z"/></g>
</svg>