<?xml version="1.0" encoding="utf-8"?>
<!-- Svg Vector Icons : http://www.sfont.cn -->
<!DOCTYPE svg PUBLIC "-//W3C//DTD SVG 1.1//EN" "http://www.w3.org/Graphics/SVG/1.1/DTD/svg11.dtd">
<svg version="1.1" xmlns="http://www.w3.org/2000/svg" xmlns:xlink="http://www.w3.org/1999/xlink" x="0px" y="0px" viewBox="0 0 1000 1000" enable-background="new 0 0 1000 1000" xml:space="preserve">
<metadata> Svg Vector Icons : http://www.sfont.cn </metadata>
<g><path d="M863.5,8.3H130.8C19.7,8.3,10,136.6,10,136.6s0,666,0,741.6s120.8,113.4,120.8,113.4h543.6L990,680.9c0,0,0-458.7,0-554.1C990.1,31.4,863.5,8.3,863.5,8.3z M913.5,650c0,38.8-40.9,40.8-40.9,40.8s-93.7,0-139.3,0c-45.6,0-45.2,34.6-45.2,34.6s0,89.2,0,138.2c0,48.8-24.7,50.9-24.7,50.9s-458.8,0-514.7,0c-55.9,0-61.9-47.7-61.9-47.7s0-649.5,0-712s61.9-74,61.9-74s636.4,3.2,694.9,3.2c58.4,0,70,70,70,70S913.5,611,913.5,650z"/><path d="M766.4,348.2c0,21.1-17,38.1-38.1,38.1H267.7c-21.1,0-38.1-17-38.1-38.1l0,0c0-21.1,17.1-38.1,38.1-38.1h460.7C749.4,310.2,766.4,327.1,766.4,348.2L766.4,348.2z"/><path d="M685.1,542.1c0,20.4-16.6,36.9-37,36.9H266.6c-20.4,0-36.9-16.6-36.9-36.9l0,0c0-20.6,16.6-37.1,36.9-37.1h381.5C668.5,504.9,685.1,521.5,685.1,542.1L685.1,542.1z"/></g>
</svg>